<?xml version="1.0" encoding="utf-8"?>
<!-- Generator: Adobe Illustrator 27.6.1, SVG Export Plug-In . SVG Version: 6.00 Build 0)  -->
<svg version="1.1" id="Layer_1" xmlns="http://www.w3.org/2000/svg" xmlns:xlink="http://www.w3.org/1999/xlink" x="0px" y="0px"
	 viewBox="0 0 3000 3000" style="enable-background:new 0 0 3000 3000;" xml:space="preserve">
<style type="text/css">
	.st0{fill:#FFFFFF;}
	.st1{fill:#1D1D1B;}
</style>
<rect class="st0" width="3000" height="3000"/>
<path class="st1" d="M522.92,568.95l50.22-46.04c6.69-6.13,17.31-4.65,22.07,3.08l39.06,63.47c3.21,5.21,8.91,8.31,15.03,8.3
	c36.47-0.04,174.54,10.73,394.85,156.24c196.06,135.81,314.65,245.79,343.35,268.75c28.69,22.95,234.32,230.49,491.59,275.44
	c127.2,19.13,244.84-33.47,346.22-180.76c62.17-93.73,80.34-181.77,96.6-210.91c16.26-29.14,85.12-206.08,197.02-303.63
	c80.34-73.64,218.06-140.59,251.53-50.69c12.43,33.47,2.87,107.12-63.12,157.81c-65.99,50.69-131.03,43.99-220.93,127.2
	c-89.9,83.21-155.89,246.75-185.54,308.92c-17.22,39.21-30.6,102.23-89.9,155.84c-41.31,37.35-82.62,73.74-103.88,92.39
	c-7.97,6.99-9.11,18.91-2.56,27.25c20.61,26.25,61.82,87.24,78.7,173.07c22.95,116.68,28.69,253.45,29.65,316.57
	c0.96,54.51,34.43,123.38,106.16,163.54c47.82,28.69,36.34,99.47,42.08,128.16c5.74,28.69,54.51,96.6,55.47,112.85
	s-15.3,27.74-16.26,39.21c-0.96,11.48-4.78,115.72-5.74,133.9c-16.26,5.74-147.28,10.52-159.72-143.46
	c-12.43-145.37-14.82-169.76-14.82-169.76s-185.06-146.33-252.49-252.49c-67.43-106.16-116.2-193.67-143.46-281.18
	c-33-76.03-121.94-179.32-252.49-186.5c-130.55-7.17-342.87,1.43-542.28-175.02c-63.66-60.47-110.44-102.9-130.5-120.9
	c-5.88-5.28-14.79-4.94-20.34,0.68c-22.29,22.58-81.68,74.09-156.88,70.73c-96.12-4.3-264.68-66.71-309.87-104.01
	c-35.15-10.04-50.93,12.19-50.93,27.97c0,15.78,5.02,64.56-68.86,52.36c-73.88-12.19-72.45-114.77-61.69-131.98
	c10.76-17.22,60.97-75.32,162.11-76.03c101.14-0.72,165.7,33.71,170.72-22.95c0.72-51.65-10.76-80.34-113.33-79.62
	c-63.12,38.02-80.34-3.59-88.94-16.5c-9.09-35.86-84.64-53.08-94.68-78.9c-6.71-17.25-5.02-47.34,36.58-73.16
	c19.37-14.35,33-53.8,33-70.3c5.74-16.5,38.02-22.95,48.78-32.28c10.76-9.32,43.76-34.43,61.69-90.38
	C473.43,494.35,495.67,554.6,522.92,568.95z"/>
</svg>
